<mxfile host="Electron" agent="Mozilla/5.0 (Windows NT 10.0; Win64; x64) AppleWebKit/537.36 (KHTML, like Gecko) draw.io/28.1.2 Chrome/138.0.7204.243 Electron/37.4.0 Safari/537.36" version="28.1.2">
  <diagram name="Seite-1" id="SwfTWfLOiMDrU8gnm7uk">
    <mxGraphModel dx="2852" dy="1682" grid="1" gridSize="10" guides="1" tooltips="1" connect="1" arrows="1" fold="1" page="1" pageScale="1" pageWidth="827" pageHeight="1169" math="0" shadow="0">
      <root>
        <mxCell id="0" />
        <mxCell id="1" parent="0" />
        <mxCell id="8Gq6uStzvYopfJe8uw28-16" style="edgeStyle=orthogonalEdgeStyle;rounded=0;orthogonalLoop=1;jettySize=auto;html=1;entryX=0.5;entryY=0;entryDx=0;entryDy=0;" parent="1" source="8Gq6uStzvYopfJe8uw28-1" target="8Gq6uStzvYopfJe8uw28-15" edge="1">
          <mxGeometry relative="1" as="geometry" />
        </mxCell>
        <mxCell id="8Gq6uStzvYopfJe8uw28-1" value="&lt;font style=&quot;font-size: 21px;&quot;&gt;Start&lt;/font&gt;" style="ellipse;whiteSpace=wrap;html=1;" parent="1" vertex="1">
          <mxGeometry x="340" y="20" width="120" height="80" as="geometry" />
        </mxCell>
        <mxCell id="8Gq6uStzvYopfJe8uw28-4" value="process: mens when your app shall do something itself" style="whiteSpace=wrap;html=1;aspect=fixed;" parent="1" vertex="1">
          <mxGeometry x="10" y="290" width="130" height="130" as="geometry" />
        </mxCell>
        <mxCell id="8Gq6uStzvYopfJe8uw28-5" value="" style="shape=flexArrow;endArrow=classic;html=1;rounded=0;exitX=1;exitY=0.5;exitDx=0;exitDy=0;" parent="1" edge="1" source="8Gq6uStzvYopfJe8uw28-4">
          <mxGeometry width="50" height="50" relative="1" as="geometry">
            <mxPoint x="145" y="354.58" as="sourcePoint" />
            <mxPoint x="250" y="355.08" as="targetPoint" />
          </mxGeometry>
        </mxCell>
        <mxCell id="8Gq6uStzvYopfJe8uw28-12" style="edgeStyle=orthogonalEdgeStyle;rounded=0;orthogonalLoop=1;jettySize=auto;html=1;entryX=0.5;entryY=0;entryDx=0;entryDy=0;exitX=0.484;exitY=1.043;exitDx=0;exitDy=0;exitPerimeter=0;" parent="1" source="8Gq6uStzvYopfJe8uw28-19" target="8Gq6uStzvYopfJe8uw28-11" edge="1">
          <mxGeometry relative="1" as="geometry">
            <mxPoint x="400" y="460" as="sourcePoint" />
          </mxGeometry>
        </mxCell>
        <mxCell id="8Gq6uStzvYopfJe8uw28-11" value="&lt;div&gt;print: result&lt;/div&gt;" style="rounded=1;whiteSpace=wrap;html=1;absoluteArcSize=1;arcSize=14;strokeWidth=2;fontSize=24;" parent="1" vertex="1">
          <mxGeometry x="300" y="510" width="200" height="100" as="geometry" />
        </mxCell>
        <mxCell id="8Gq6uStzvYopfJe8uw28-13" value="END&lt;div&gt;&lt;br&gt;&lt;/div&gt;" style="strokeWidth=2;html=1;shape=mxgraph.flowchart.start_2;whiteSpace=wrap;fontSize=22;" parent="1" vertex="1">
          <mxGeometry x="350" y="690" width="100" height="100" as="geometry" />
        </mxCell>
        <mxCell id="8Gq6uStzvYopfJe8uw28-14" style="edgeStyle=orthogonalEdgeStyle;rounded=0;orthogonalLoop=1;jettySize=auto;html=1;entryX=0.5;entryY=0;entryDx=0;entryDy=0;entryPerimeter=0;" parent="1" source="8Gq6uStzvYopfJe8uw28-11" target="8Gq6uStzvYopfJe8uw28-13" edge="1">
          <mxGeometry relative="1" as="geometry" />
        </mxCell>
        <mxCell id="8Gq6uStzvYopfJe8uw28-15" value="define Variablen&lt;div&gt;&lt;font style=&quot;color: rgb(0, 0, 255);&quot;&gt;name&lt;/font&gt;: &quot;Ali&quot;&lt;/div&gt;&lt;div&gt;&lt;font style=&quot;color: rgb(0, 0, 204);&quot;&gt;country&lt;/font&gt;: &quot;Iran&quot;&lt;/div&gt;&lt;div&gt;&lt;font style=&quot;color: light-dark(rgb(0, 0, 102), rgb(13, 7, 255));&quot;&gt;age&lt;/font&gt;: &quot;48&quot;&lt;/div&gt;&lt;div&gt;result: NULL&lt;/div&gt;" style="rounded=0;whiteSpace=wrap;html=1;fontSize=16;" parent="1" vertex="1">
          <mxGeometry x="275" y="150" width="250" height="100" as="geometry" />
        </mxCell>
        <mxCell id="8Gq6uStzvYopfJe8uw28-19" value="&lt;font style=&quot;font-size: 17px;&quot;&gt;result = Hello my name is &quot;name&quot; and i am &quot;age&quot; years oldand i come from &quot;country&quot;&amp;nbsp;&amp;nbsp;&lt;/font&gt;&lt;div&gt;&lt;font style=&quot;font-size: 17px;&quot;&gt;&lt;br&gt;&lt;/font&gt;&lt;/div&gt;" style="shape=process;whiteSpace=wrap;html=1;backgroundOutline=1;" parent="1" vertex="1">
          <mxGeometry x="250" y="290" width="310" height="115" as="geometry" />
        </mxCell>
        <mxCell id="8Gq6uStzvYopfJe8uw28-20" style="edgeStyle=orthogonalEdgeStyle;rounded=0;orthogonalLoop=1;jettySize=auto;html=1;entryX=0.484;entryY=-0.007;entryDx=0;entryDy=0;entryPerimeter=0;" parent="1" source="8Gq6uStzvYopfJe8uw28-15" target="8Gq6uStzvYopfJe8uw28-19" edge="1">
          <mxGeometry relative="1" as="geometry" />
        </mxCell>
        <mxCell id="IvDiq776E5UwJWVZKikY-2" value="Text Generator Process" style="whiteSpace=wrap;html=1;aspect=fixed;verticalAlign=top;align=left;movable=0;resizable=0;rotatable=0;deletable=0;editable=0;locked=1;connectable=0;" vertex="1" parent="1">
          <mxGeometry x="30" y="880" width="630" height="630" as="geometry" />
        </mxCell>
        <mxCell id="IvDiq776E5UwJWVZKikY-34" style="edgeStyle=orthogonalEdgeStyle;rounded=0;orthogonalLoop=1;jettySize=auto;html=1;" edge="1" parent="1" source="IvDiq776E5UwJWVZKikY-3">
          <mxGeometry relative="1" as="geometry">
            <mxPoint x="215" y="970" as="targetPoint" />
          </mxGeometry>
        </mxCell>
        <mxCell id="IvDiq776E5UwJWVZKikY-3" value="Start" style="ellipse;whiteSpace=wrap;html=1;aspect=fixed;" vertex="1" parent="1">
          <mxGeometry x="185" y="890" width="60" height="60" as="geometry" />
        </mxCell>
        <mxCell id="IvDiq776E5UwJWVZKikY-33" style="edgeStyle=orthogonalEdgeStyle;rounded=0;orthogonalLoop=1;jettySize=auto;html=1;" edge="1" parent="1" source="IvDiq776E5UwJWVZKikY-4">
          <mxGeometry relative="1" as="geometry">
            <mxPoint x="215" y="1050" as="targetPoint" />
          </mxGeometry>
        </mxCell>
        <mxCell id="IvDiq776E5UwJWVZKikY-4" value="input: name, country, age" style="shape=parallelogram;perimeter=parallelogramPerimeter;whiteSpace=wrap;html=1;fixedSize=1;" vertex="1" parent="1">
          <mxGeometry x="125" y="970" width="180" height="60" as="geometry" />
        </mxCell>
        <mxCell id="IvDiq776E5UwJWVZKikY-19" value="" style="edgeStyle=orthogonalEdgeStyle;rounded=0;orthogonalLoop=1;jettySize=auto;html=1;" edge="1" parent="1" source="IvDiq776E5UwJWVZKikY-6" target="IvDiq776E5UwJWVZKikY-10">
          <mxGeometry relative="1" as="geometry" />
        </mxCell>
        <mxCell id="IvDiq776E5UwJWVZKikY-32" style="edgeStyle=orthogonalEdgeStyle;rounded=0;orthogonalLoop=1;jettySize=auto;html=1;" edge="1" parent="1" source="IvDiq776E5UwJWVZKikY-6">
          <mxGeometry relative="1" as="geometry">
            <mxPoint x="215" y="1150" as="targetPoint" />
          </mxGeometry>
        </mxCell>
        <mxCell id="IvDiq776E5UwJWVZKikY-6" value="all inputs exists&amp;nbsp;" style="rhombus;whiteSpace=wrap;html=1;" vertex="1" parent="1">
          <mxGeometry x="175" y="1050" width="80" height="80" as="geometry" />
        </mxCell>
        <mxCell id="IvDiq776E5UwJWVZKikY-31" value="" style="edgeStyle=orthogonalEdgeStyle;rounded=0;orthogonalLoop=1;jettySize=auto;html=1;" edge="1" parent="1" source="IvDiq776E5UwJWVZKikY-7" target="IvDiq776E5UwJWVZKikY-8">
          <mxGeometry relative="1" as="geometry" />
        </mxCell>
        <mxCell id="IvDiq776E5UwJWVZKikY-7" value="&lt;font style=&quot;font-size: 13px;&quot;&gt;result = Hello my name is &quot;name&quot; and i am &quot;age&quot; years oldand i come from &quot;country&quot;&amp;nbsp;&amp;nbsp;&lt;/font&gt;&lt;div&gt;&lt;font style=&quot;font-size: 17px;&quot;&gt;&lt;br&gt;&lt;/font&gt;&lt;/div&gt;" style="rounded=0;whiteSpace=wrap;html=1;verticalAlign=middle;" vertex="1" parent="1">
          <mxGeometry x="120" y="1150" width="190" height="69" as="geometry" />
        </mxCell>
        <mxCell id="IvDiq776E5UwJWVZKikY-30" value="" style="edgeStyle=orthogonalEdgeStyle;rounded=0;orthogonalLoop=1;jettySize=auto;html=1;" edge="1" parent="1" source="IvDiq776E5UwJWVZKikY-8" target="IvDiq776E5UwJWVZKikY-9">
          <mxGeometry relative="1" as="geometry" />
        </mxCell>
        <mxCell id="IvDiq776E5UwJWVZKikY-8" value="print result" style="whiteSpace=wrap;html=1;aspect=fixed;" vertex="1" parent="1">
          <mxGeometry x="175" y="1260" width="80" height="80" as="geometry" />
        </mxCell>
        <mxCell id="IvDiq776E5UwJWVZKikY-9" value="END" style="ellipse;whiteSpace=wrap;html=1;aspect=fixed;" vertex="1" parent="1">
          <mxGeometry x="175" y="1390" width="80" height="80" as="geometry" />
        </mxCell>
        <mxCell id="IvDiq776E5UwJWVZKikY-27" style="edgeStyle=orthogonalEdgeStyle;rounded=0;orthogonalLoop=1;jettySize=auto;html=1;entryX=1;entryY=0.5;entryDx=0;entryDy=0;exitX=1;exitY=0.5;exitDx=0;exitDy=0;" edge="1" parent="1" source="IvDiq776E5UwJWVZKikY-10" target="IvDiq776E5UwJWVZKikY-9">
          <mxGeometry relative="1" as="geometry">
            <mxPoint x="580" y="1410" as="targetPoint" />
            <Array as="points">
              <mxPoint x="550" y="1090" />
              <mxPoint x="550" y="1430" />
            </Array>
          </mxGeometry>
        </mxCell>
        <mxCell id="IvDiq776E5UwJWVZKikY-10" value="print Error" style="rounded=1;whiteSpace=wrap;html=1;" vertex="1" parent="1">
          <mxGeometry x="360" y="1060" width="120" height="60" as="geometry" />
        </mxCell>
        <mxCell id="IvDiq776E5UwJWVZKikY-26" value="&lt;font style=&quot;font-size: 31px;&quot;&gt;Pseudo Code&lt;/font&gt;&lt;div&gt;Start&lt;/div&gt;&lt;div&gt;&amp;nbsp; &amp;nbsp; &amp;nbsp; &amp;nbsp;SET name: Ali&lt;/div&gt;&lt;div&gt;&amp;nbsp; &amp;nbsp; &amp;nbsp; &amp;nbsp;SET country: Iran&amp;nbsp;&lt;/div&gt;&lt;div&gt;&amp;nbsp; &amp;nbsp; &amp;nbsp; &amp;nbsp;SET age: 48&lt;/div&gt;&lt;div&gt;&amp;nbsp; &amp;nbsp; &amp;nbsp; &amp;nbsp;SET result: NULL&lt;/div&gt;&lt;div&gt;&lt;br&gt;&lt;/div&gt;&lt;div&gt;&amp;nbsp; &amp;nbsp; &amp;nbsp; &amp;nbsp;result= Hello my name is &quot;name&quot; and i am &quot;age&quot;&lt;/div&gt;&lt;div&gt;&amp;nbsp; &amp;nbsp; &amp;nbsp; &amp;nbsp; &amp;nbsp; &amp;nbsp; &amp;nbsp; &amp;nbsp; &amp;nbsp; &amp;nbsp;years and i come from &quot;country&quot;&lt;/div&gt;&lt;div&gt;&amp;nbsp; &amp;nbsp; &amp;nbsp; &amp;nbsp;PRINT result&lt;/div&gt;&lt;div&gt;END&lt;/div&gt;" style="text;html=1;align=left;verticalAlign=top;whiteSpace=wrap;rounded=0;fontSize=24;" vertex="1" parent="1">
          <mxGeometry x="767" y="170" width="633" height="370" as="geometry" />
        </mxCell>
      </root>
    </mxGraphModel>
  </diagram>
</mxfile>
